<svg width="227" height="40" viewBox="0 0 227 40" fill="none" xmlns="http://www.w3.org/2000/svg">
<path d="M41.6699 4.44727V3.57227L45.8535 3.6543L49.709 3.57227V4.44727C48.6243 4.46549 47.9635 4.51562 47.7266 4.59766C47.4987 4.67057 47.3392 4.77539 47.248 4.91211C47.1387 5.0944 47.0703 5.53646 47.043 6.23828C47.0339 6.42057 47.0156 7.71484 46.9883 10.1211V12.0215C48.7839 12.0853 50.9714 12.1172 53.5508 12.1172C55.5286 12.1172 57.11 12.0853 58.2949 12.0215V10.1211C58.2949 8.88151 58.2767 7.66927 58.2402 6.48438C58.2129 5.61849 58.1445 5.10807 58.0352 4.95312C57.9349 4.78906 57.7663 4.67057 57.5293 4.59766C57.3014 4.51562 56.6452 4.46549 55.5605 4.44727V3.57227C57.5202 3.62695 58.8646 3.6543 59.5938 3.6543C59.8672 3.6543 61.1979 3.62695 63.5859 3.57227V4.44727C62.5104 4.46549 61.8542 4.51562 61.6172 4.59766C61.3802 4.67057 61.2207 4.77539 61.1387 4.91211C61.0202 5.0944 60.9473 5.53646 60.9199 6.23828C60.9108 6.42057 60.8926 7.71484 60.8652 10.1211V16.4512C60.8652 17.6908 60.8835 18.8984 60.9199 20.0742C60.9382 20.9401 60.9974 21.4551 61.0977 21.6191C61.207 21.7832 61.3802 21.9062 61.6172 21.9883C61.8542 22.0612 62.5104 22.1068 63.5859 22.125V23C61.8268 22.9271 60.3867 22.8906 59.2656 22.8906C58.0716 22.8906 56.8366 22.9271 55.5605 23V22.125C56.6452 22.1068 57.3014 22.0612 57.5293 21.9883C57.7663 21.9062 57.9303 21.7969 58.0215 21.6602C58.14 21.4779 58.2083 21.0358 58.2266 20.334C58.2357 20.1426 58.2585 18.8483 58.2949 16.4512V13.334C55.7428 13.2793 53.806 13.252 52.4844 13.252C51.0443 13.252 49.2122 13.2793 46.9883 13.334V16.4512C46.9883 17.6908 47.002 18.8984 47.0293 20.0742C47.0566 20.9401 47.1204 21.4551 47.2207 21.6191C47.3301 21.7832 47.4987 21.9062 47.7266 21.9883C47.9635 22.0612 48.6243 22.1068 49.709 22.125V23C48.4785 22.918 47.2116 22.877 45.9082 22.877C44.4863 22.877 43.0736 22.918 41.6699 23V22.125C42.7454 22.1068 43.4017 22.0612 43.6387 21.9883C43.8757 21.9062 44.0397 21.7969 44.1309 21.6602C44.2402 21.4779 44.3086 21.0358 44.3359 20.334C44.3451 20.1426 44.3633 18.8483 44.3906 16.4512V10.1211C44.3906 8.88151 44.377 7.66927 44.3496 6.48438C44.3223 5.61849 44.2539 5.10807 44.1445 4.95312C44.0443 4.78906 43.8757 4.67057 43.6387 4.59766C43.4108 4.51562 42.7546 4.46549 41.6699 4.44727ZM67.2637 13.6348L66.5391 13.4434C66.5482 13.2337 66.5527 12.9466 66.5527 12.582C66.5527 12.1992 66.5482 11.8939 66.5391 11.666C67.6966 10.9095 68.6445 10.3991 69.3828 10.1348C69.9479 9.94336 70.5814 9.84766 71.2832 9.84766C72.3223 9.84766 73.1973 10.0436 73.9082 10.4355C74.6191 10.8275 75.1478 11.388 75.4941 12.1172C75.7311 12.6276 75.8496 13.3249 75.8496 14.209L75.7949 16.7109V20.7852C75.7949 21.2227 75.8314 21.5371 75.9043 21.7285C75.959 21.8652 76.0456 21.9655 76.1641 22.0293C76.2552 22.084 76.4466 22.1204 76.7383 22.1387L77.627 22.2207V23C76.8796 22.9362 76.2233 22.9043 75.6582 22.9043C75.1113 22.9043 74.3822 22.9362 73.4707 23L73.5391 20.5938C71.6797 21.9974 70.5768 22.7904 70.2305 22.9727C69.8841 23.1458 69.4466 23.2324 68.918 23.2324C67.8151 23.2324 66.9538 22.9408 66.334 22.3574C65.7233 21.765 65.418 20.9811 65.418 20.0059C65.418 19.377 65.5228 18.8027 65.7324 18.2832C65.9512 17.7637 66.2109 17.3535 66.5117 17.0527C66.8125 16.7428 67.1178 16.515 67.4277 16.3691C67.9564 16.123 68.8132 15.8587 69.998 15.5762C71.1921 15.2936 72.3724 15.084 73.5391 14.9473C73.5482 14.0814 73.4434 13.4069 73.2246 12.9238C73.0059 12.4408 72.6367 12.0443 72.1172 11.7344C71.5977 11.4245 70.9642 11.2695 70.2168 11.2695C69.679 11.2695 69.2051 11.3424 68.7949 11.4883C68.3939 11.6341 68.1478 11.7572 68.0566 11.8574L67.8105 12.3496C67.5645 12.8965 67.3822 13.3249 67.2637 13.6348ZM73.5391 15.7812C72.3542 15.9818 71.3424 16.2051 70.5039 16.4512C69.6654 16.6973 69.0729 16.9525 68.7266 17.2168C68.5169 17.3717 68.3346 17.6042 68.1797 17.9141C67.9427 18.3698 67.8242 18.8757 67.8242 19.4316C67.8242 20.1061 68.0111 20.6348 68.3848 21.0176C68.7585 21.3913 69.278 21.5781 69.9434 21.5781C70.554 21.5781 71.1556 21.4049 71.748 21.0586C72.3496 20.7031 72.9466 20.1745 73.5391 19.4727V15.7812ZM71.5703 3.16211C72.5 3.16211 73.2428 3.43555 73.7988 3.98242C74.3639 4.52018 74.6465 5.18099 74.6465 5.96484C74.6465 6.7487 74.3639 7.41406 73.7988 7.96094C73.2428 8.4987 72.5 8.76758 71.5703 8.76758C70.6406 8.76758 69.8932 8.4987 69.3281 7.96094C68.7721 7.41406 68.4941 6.7487 68.4941 5.96484C68.4941 5.18099 68.7721 4.52018 69.3281 3.98242C69.8932 3.43555 70.6406 3.16211 71.5703 3.16211ZM71.5703 3.92773C71.0052 3.92773 70.5814 4.11458 70.2988 4.48828C70.0254 4.86198 69.8887 5.35417 69.8887 5.96484C69.8887 6.57552 70.0254 7.06771 70.2988 7.44141C70.5814 7.8151 71.0052 8.00195 71.5703 8.00195C72.1354 8.00195 72.5547 7.8151 72.8281 7.44141C73.1107 7.06771 73.252 6.57552 73.252 5.96484C73.252 5.35417 73.1107 4.86198 72.8281 4.48828C72.5547 4.11458 72.1354 3.92773 71.5703 3.92773ZM78.8301 23V22.2207L80.1152 22.207C80.3158 22.1979 80.4661 22.166 80.5664 22.1113C80.6758 22.0475 80.7578 21.9701 80.8125 21.8789C80.9128 21.6966 80.972 21.373 80.9902 20.9082C80.9993 20.7897 81.0312 19.4818 81.0859 16.9844V11.3105C81.0859 9.78841 81.0586 8.21615 81.0039 6.59375C80.9674 5.5 80.9173 4.88932 80.8535 4.76172C80.8079 4.67057 80.735 4.60677 80.6348 4.57031C80.498 4.50651 79.8691 4.47461 78.748 4.47461V3.66797C80.8079 3.41276 82.2389 3.09375 83.041 2.71094C83.1595 2.65625 83.2507 2.62891 83.3145 2.62891C83.3783 2.62891 83.4284 2.65169 83.4648 2.69727C83.5013 2.73372 83.5195 2.78841 83.5195 2.86133C83.5195 2.92513 83.5104 3.01628 83.4922 3.13477L83.4785 3.58594C83.4329 5.21745 83.4056 6.60742 83.3965 7.75586L83.3691 9.88867V15.3848L83.5195 15.4668C84.0026 15.166 84.6999 14.6328 85.6113 13.8672C86.222 13.3477 87.5938 12.0898 89.7266 10.0938C90.4284 10.1211 90.875 10.1348 91.0664 10.1348C91.2487 10.1348 91.709 10.1211 92.4473 10.0938V10.8594C91.9186 10.8867 91.5814 10.9232 91.4355 10.9688C91.235 11.0326 90.8568 11.2422 90.3008 11.5977C89.4258 12.1536 88.373 12.9421 87.1426 13.9629L85.748 15.0703C86.4863 15.8268 87.7624 17.0938 89.5762 18.8711C90.9434 20.2656 91.7637 21.0814 92.0371 21.3184C92.3197 21.5462 92.5931 21.6829 92.8574 21.7285C93.1217 21.7741 93.5319 21.7969 94.0879 21.7969V22.4121C93.4134 22.5397 92.8438 22.6582 92.3789 22.7676C91.9141 22.8678 91.3809 22.9909 90.7793 23.1367C90.4694 22.8815 90.1686 22.6217 89.877 22.3574C89.5853 22.084 88.9883 21.4824 88.0859 20.5527C86.2357 18.6569 84.7135 17.1758 83.5195 16.1094L83.3691 16.1777V16.9844C83.4147 19.3542 83.4421 20.6348 83.4512 20.8262C83.4603 21.2819 83.515 21.6146 83.6152 21.8242C83.6517 21.9062 83.7064 21.9792 83.7793 22.043C83.8522 22.0977 83.9616 22.1432 84.1074 22.1797C84.1712 22.1888 84.6771 22.2025 85.625 22.2207V23C84.4219 22.9271 83.3327 22.8906 82.3574 22.8906C81.4095 22.8906 80.2337 22.9271 78.8301 23ZM94.8125 16.7109C94.8125 14.6693 95.4596 13.0059 96.7539 11.7207C98.0573 10.4264 99.7253 9.7793 101.758 9.7793C103.672 9.7793 105.23 10.3809 106.434 11.584C107.637 12.7871 108.238 14.3411 108.238 16.2461C108.238 17.5768 107.928 18.7936 107.309 19.8965C106.689 20.9993 105.814 21.8652 104.684 22.4941C103.553 23.1139 102.309 23.4238 100.951 23.4238C99.8939 23.4238 98.9961 23.2461 98.2578 22.8906C97.5286 22.5352 96.9362 22.0885 96.4805 21.5508C96.0247 21.013 95.6784 20.4616 95.4414 19.8965C95.0221 18.903 94.8125 17.8411 94.8125 16.7109ZM97.3965 15.6992C97.3965 16.8203 97.5833 17.9596 97.957 19.1172C98.3307 20.2747 98.8685 21.1224 99.5703 21.6602C100.281 22.1888 101.051 22.4531 101.881 22.4531C102.938 22.4531 103.822 22.0339 104.533 21.1953C105.244 20.3568 105.6 19.0671 105.6 17.3262C105.6 15.877 105.385 14.6283 104.957 13.5801C104.538 12.5228 104 11.7799 103.344 11.3516C102.688 10.9141 101.963 10.6953 101.17 10.6953C100.049 10.6953 99.1374 11.1009 98.4355 11.9121C97.7428 12.7233 97.3965 13.9857 97.3965 15.6992ZM109.551 23V22.2207L110.85 22.207C111.041 22.1979 111.187 22.166 111.287 22.1113C111.396 22.0475 111.479 21.9701 111.533 21.8789C111.633 21.6966 111.697 21.373 111.725 20.9082C111.725 20.7897 111.752 19.4818 111.807 16.9844V15.3574C111.807 14.6283 111.793 13.8444 111.766 13.0059C111.738 12.4681 111.693 12.1491 111.629 12.0488C111.574 11.9486 111.474 11.8757 111.328 11.8301C111.182 11.7754 110.59 11.7526 109.551 11.7617V10.9824C111.392 10.7272 112.736 10.3945 113.584 9.98438C113.766 9.89323 113.889 9.84766 113.953 9.84766C114.017 9.84766 114.067 9.87044 114.104 9.91602C114.14 9.96159 114.158 10.0299 114.158 10.1211C114.158 10.1849 114.154 10.2578 114.145 10.3398C114.117 10.668 114.09 11.3607 114.062 12.418L116.605 10.2441C117.353 9.9707 118.059 9.83398 118.725 9.83398C119.463 9.83398 120.16 9.98438 120.816 10.2852C121.482 10.5859 121.979 10.9642 122.307 11.4199C122.644 11.8757 122.867 12.4499 122.977 13.1426C123.04 13.5527 123.072 14.6966 123.072 16.5742V18.9941C123.072 20.179 123.104 20.9857 123.168 21.4141C123.214 21.6875 123.282 21.8789 123.373 21.9883C123.473 22.0885 123.624 22.1523 123.824 22.1797L125.287 22.2207V23C124.394 22.9362 123.651 22.9043 123.059 22.9043C122.548 22.9043 121.701 22.9362 120.516 23C120.643 20.7487 120.707 19.3268 120.707 18.7344V16.4375C120.707 15.0065 120.652 14.0677 120.543 13.6211C120.388 13.0104 120.037 12.5182 119.49 12.1445C118.943 11.7708 118.283 11.584 117.508 11.584C116.824 11.584 116.2 11.748 115.635 12.0762C115.07 12.3952 114.664 12.7689 114.418 13.1973C114.181 13.6165 114.062 14.3275 114.062 15.3301V16.9844C114.117 19.3542 114.145 20.6348 114.145 20.8262C114.163 21.2819 114.217 21.6146 114.309 21.8242C114.345 21.9062 114.4 21.9792 114.473 22.043C114.546 22.0977 114.66 22.1432 114.814 22.1797C114.869 22.1888 115.37 22.2025 116.318 22.2207V23C115.206 22.9362 114.199 22.9043 113.297 22.9043C112.531 22.9043 111.283 22.9362 109.551 23ZM132.984 4.44727V3.57227C133.941 3.60872 134.857 3.62695 135.732 3.62695C136.617 3.62695 137.464 3.60872 138.275 3.57227C139.077 5.39518 139.811 6.99479 140.477 8.37109L145.658 19.0352L150.334 9.25977C151.61 6.59831 152.462 4.70247 152.891 3.57227C153.857 3.60872 154.673 3.62695 155.338 3.62695C155.949 3.62695 156.938 3.60872 158.305 3.57227V4.44727C157.22 4.46549 156.559 4.51562 156.322 4.59766C156.094 4.67057 155.935 4.77539 155.844 4.91211C155.725 5.0944 155.657 5.53646 155.639 6.23828C155.63 6.42057 155.607 7.71484 155.57 10.1211V16.4512C155.57 17.6908 155.589 18.8984 155.625 20.0742C155.652 20.9401 155.716 21.4551 155.816 21.6191C155.926 21.7832 156.094 21.9062 156.322 21.9883C156.559 22.0612 157.22 22.1068 158.305 22.125V23C156.464 22.918 155.165 22.877 154.408 22.877C153.798 22.877 152.449 22.918 150.361 23V22.125C151.446 22.1068 152.107 22.0612 152.344 21.9883C152.581 21.9062 152.74 21.7969 152.822 21.6602C152.941 21.4779 153.009 21.0358 153.027 20.334C153.036 20.1426 153.059 18.8483 153.096 16.4512V6.41602L148.379 16.2871C147.641 17.8275 147.062 19.0671 146.643 20.0059C146.342 20.6895 145.886 21.7741 145.275 23.2598H144.742C144.624 22.9134 144.514 22.6354 144.414 22.4258L143.484 20.4434L136.949 6.86719V16.4512C136.949 17.6908 136.967 18.8984 137.004 20.0742C137.031 20.9401 137.095 21.4551 137.195 21.6191C137.305 21.7832 137.473 21.9062 137.701 21.9883C137.938 22.0612 138.599 22.1068 139.684 22.125V23L136.389 22.8906L132.984 23V22.125C134.06 22.1068 134.716 22.0612 134.953 21.9883C135.19 21.9062 135.354 21.7969 135.445 21.6602C135.555 21.4779 135.623 21.0358 135.65 20.334C135.66 20.1426 135.678 18.8483 135.705 16.4512V10.1211C135.705 8.88151 135.691 7.66927 135.664 6.48438C135.637 5.61849 135.568 5.10807 135.459 4.95312C135.359 4.78906 135.19 4.67057 134.953 4.59766C134.725 4.51562 134.069 4.46549 132.984 4.44727ZM162.27 3.75C162.698 3.75 163.062 3.90039 163.363 4.20117C163.664 4.50195 163.814 4.86654 163.814 5.29492C163.814 5.71419 163.664 6.07422 163.363 6.375C163.062 6.67578 162.698 6.82617 162.27 6.82617C161.85 6.82617 161.486 6.67578 161.176 6.375C160.875 6.07422 160.725 5.71419 160.725 5.29492C160.725 4.86654 160.875 4.50195 161.176 4.20117C161.477 3.90039 161.841 3.75 162.27 3.75ZM158.223 30.7246L158.059 29.7539C158.368 29.7812 158.578 29.7949 158.688 29.7949C158.97 29.7949 159.221 29.7357 159.439 29.6172C159.749 29.4622 160.027 29.2161 160.273 28.8789C160.529 28.5508 160.72 28.127 160.848 27.6074C160.984 27.097 161.071 26.2448 161.107 25.0508C161.153 23.8659 161.176 23.0957 161.176 22.7402V15.0703C161.176 14.8333 161.162 14.2363 161.135 13.2793C161.117 12.6777 161.076 12.2858 161.012 12.1035C160.975 12.0124 160.916 11.9395 160.834 11.8848C160.697 11.7936 160.456 11.748 160.109 11.748C159.608 11.748 159.212 11.7435 158.92 11.7344V10.9551C160.88 10.7363 162.301 10.3854 163.186 9.90234C163.331 9.82031 163.445 9.7793 163.527 9.7793C163.591 9.7793 163.641 9.80208 163.678 9.84766C163.723 9.89323 163.746 9.96159 163.746 10.0527C163.746 10.1257 163.742 10.2168 163.732 10.3262C163.705 10.5723 163.682 10.946 163.664 11.4473C163.618 12.3952 163.587 13.4753 163.568 14.6875C163.532 16.4648 163.514 17.4674 163.514 17.6953L163.555 21.4551C163.555 23.8704 163.372 25.6432 163.008 26.7734C162.743 27.5755 162.37 28.2819 161.887 28.8926C161.404 29.5124 160.889 29.9727 160.342 30.2734C159.804 30.5833 159.198 30.7383 158.523 30.7383C158.451 30.7383 158.35 30.7337 158.223 30.7246ZM166.07 22.8359L167.848 21.0586C167.41 20.3659 167.087 19.6777 166.877 18.9941C166.676 18.3105 166.576 17.5495 166.576 16.7109C166.576 15.362 166.868 14.1452 167.451 13.0605C168.044 11.9759 168.887 11.1602 169.98 10.6133C171.074 10.0573 172.259 9.7793 173.535 9.7793C174.456 9.7793 175.262 9.9069 175.955 10.1621C176.648 10.4173 177.29 10.7773 177.883 11.2422L179.564 9.58789L180.33 10.3262L178.635 12.0078C179.118 12.6823 179.46 13.3249 179.66 13.9355C179.861 14.5462 179.961 15.2708 179.961 16.1094C179.961 17.5221 179.665 18.7799 179.072 19.8828C178.48 20.9766 177.609 21.8379 176.461 22.4668C175.322 23.0866 174.068 23.3965 172.701 23.3965C171.844 23.3965 171.097 23.2734 170.459 23.0273C169.821 22.7904 169.192 22.4076 168.572 21.8789L166.836 23.5469L166.07 22.8359ZM176.352 12.7324C175.914 12.0124 175.422 11.4883 174.875 11.1602C174.328 10.832 173.699 10.668 172.988 10.668C172.25 10.668 171.589 10.8411 171.006 11.1875C170.423 11.5339 169.962 12.0898 169.625 12.8555C169.297 13.612 169.133 14.4824 169.133 15.4668C169.133 16.5879 169.338 17.8411 169.748 19.2266L176.352 12.7324ZM170.199 20.2656C170.618 20.9492 171.065 21.4596 171.539 21.7969C172.168 22.2344 172.865 22.4531 173.631 22.4531C174.324 22.4531 174.957 22.2708 175.531 21.9062C176.115 21.5326 176.57 20.9492 176.898 20.1562C177.227 19.3633 177.391 18.3743 177.391 17.1895C177.391 16.6608 177.354 16.1641 177.281 15.6992C177.208 15.2344 177.062 14.5964 176.844 13.7852L170.199 20.2656ZM182.381 18.8711H183.201C183.21 19.3997 183.238 19.819 183.283 20.1289C183.329 20.4388 183.406 20.7441 183.516 21.0449C183.625 21.3366 183.794 21.5872 184.021 21.7969C184.249 21.9974 184.495 22.1569 184.76 22.2754C185.033 22.3848 185.307 22.4577 185.58 22.4941C185.863 22.5306 186.286 22.5488 186.852 22.5488C187.781 22.5488 188.542 22.3027 189.135 21.8105C189.736 21.3184 190.037 20.6439 190.037 19.7871C190.037 19.4043 189.941 19.0671 189.75 18.7754C189.568 18.4837 189.299 18.2559 188.943 18.0918C188.597 17.9277 187.845 17.7135 186.688 17.4492C185.53 17.1849 184.783 16.9935 184.445 16.875C183.935 16.6836 183.529 16.4512 183.229 16.1777C182.928 15.9043 182.686 15.5579 182.504 15.1387C182.331 14.7194 182.244 14.2637 182.244 13.7715C182.244 13.0514 182.431 12.3906 182.805 11.7891C183.188 11.1784 183.785 10.6862 184.596 10.3125C185.407 9.92969 186.291 9.73828 187.248 9.73828C187.822 9.73828 188.488 9.82031 189.244 9.98438C190.001 10.1393 190.616 10.3353 191.09 10.5723C191.026 11.584 190.98 12.6139 190.953 13.6621H190.174C190.128 12.9967 190.074 12.5592 190.01 12.3496C189.955 12.14 189.878 11.9531 189.777 11.7891C189.677 11.625 189.504 11.4518 189.258 11.2695C189.012 11.0781 188.693 10.9095 188.301 10.7637C187.918 10.6178 187.444 10.5449 186.879 10.5449C186.077 10.5449 185.43 10.7819 184.938 11.2559C184.454 11.7298 184.213 12.2858 184.213 12.9238C184.213 13.2793 184.281 13.5846 184.418 13.8398C184.564 14.0951 184.755 14.3047 184.992 14.4688C185.229 14.6237 185.562 14.765 185.99 14.8926L188.26 15.4531C189.408 15.7448 190.197 15.9954 190.625 16.2051C191.062 16.4147 191.413 16.7428 191.678 17.1895C191.942 17.627 192.074 18.1556 192.074 18.7754C192.074 20.0059 191.564 21.0814 190.543 22.002C189.531 22.9134 188.173 23.3691 186.469 23.3691C185.685 23.3691 184.641 23.2507 183.338 23.0137C182.618 22.877 182.23 22.7812 182.176 22.7266C182.139 22.6992 182.121 22.6536 182.121 22.5898C182.121 22.526 182.13 22.4486 182.148 22.3574C182.23 21.9655 182.285 21.5827 182.312 21.209C182.34 20.8353 182.363 20.056 182.381 18.8711Z" fill="black"/>
<path d="M62.688 29.908V32.464H66.744V33.784H62.688V37H61.128V28.6H67.26V29.908H62.688ZM75.9589 37.12C75.1029 37.12 74.3309 36.936 73.6429 36.568C72.9549 36.192 72.4149 35.676 72.0229 35.02C71.6309 34.356 71.4349 33.616 71.4349 32.8C71.4349 31.984 71.6309 31.248 72.0229 30.592C72.4149 29.928 72.9549 29.412 73.6429 29.044C74.3309 28.668 75.1029 28.48 75.9589 28.48C76.8149 28.48 77.5869 28.668 78.2749 29.044C78.9629 29.412 79.5029 29.924 79.8949 30.58C80.2869 31.236 80.4829 31.976 80.4829 32.8C80.4829 33.624 80.2869 34.364 79.8949 35.02C79.5029 35.676 78.9629 36.192 78.2749 36.568C77.5869 36.936 76.8149 37.12 75.9589 37.12ZM75.9589 35.752C76.5189 35.752 77.0229 35.628 77.4709 35.38C77.9189 35.124 78.2709 34.772 78.5269 34.324C78.7829 33.868 78.9109 33.36 78.9109 32.8C78.9109 32.24 78.7829 31.736 78.5269 31.288C78.2709 30.832 77.9189 30.48 77.4709 30.232C77.0229 29.976 76.5189 29.848 75.9589 29.848C75.3989 29.848 74.8949 29.976 74.4469 30.232C73.9989 30.48 73.6469 30.832 73.3909 31.288C73.1349 31.736 73.0069 32.24 73.0069 32.8C73.0069 33.36 73.1349 33.868 73.3909 34.324C73.6469 34.772 73.9989 35.124 74.4469 35.38C74.8949 35.628 75.3989 35.752 75.9589 35.752ZM87.0832 29.92H84.2992V28.6H91.4272V29.92H88.6432V37H87.0832V29.92ZM99.7648 37.12C98.9088 37.12 98.1368 36.936 97.4488 36.568C96.7608 36.192 96.2208 35.676 95.8288 35.02C95.4368 34.356 95.2408 33.616 95.2408 32.8C95.2408 31.984 95.4368 31.248 95.8288 30.592C96.2208 29.928 96.7608 29.412 97.4488 29.044C98.1368 28.668 98.9088 28.48 99.7648 28.48C100.621 28.48 101.393 28.668 102.081 29.044C102.769 29.412 103.309 29.924 103.701 30.58C104.093 31.236 104.289 31.976 104.289 32.8C104.289 33.624 104.093 34.364 103.701 35.02C103.309 35.676 102.769 36.192 102.081 36.568C101.393 36.936 100.621 37.12 99.7648 37.12ZM99.7648 35.752C100.325 35.752 100.829 35.628 101.277 35.38C101.725 35.124 102.077 34.772 102.333 34.324C102.589 33.868 102.717 33.36 102.717 32.8C102.717 32.24 102.589 31.736 102.333 31.288C102.077 30.832 101.725 30.48 101.277 30.232C100.829 29.976 100.325 29.848 99.7648 29.848C99.2048 29.848 98.7008 29.976 98.2528 30.232C97.8048 30.48 97.4528 30.832 97.1968 31.288C96.9408 31.736 96.8128 32.24 96.8128 32.8C96.8128 33.36 96.9408 33.868 97.1968 34.324C97.4528 34.772 97.8048 35.124 98.2528 35.38C98.7008 35.628 99.2048 35.752 99.7648 35.752ZM115.038 32.704H116.514V36.052C116.082 36.396 115.578 36.66 115.002 36.844C114.426 37.028 113.834 37.12 113.226 37.12C112.37 37.12 111.598 36.936 110.91 36.568C110.222 36.192 109.682 35.676 109.29 35.02C108.898 34.364 108.702 33.624 108.702 32.8C108.702 31.976 108.898 31.236 109.29 30.58C109.682 29.924 110.222 29.412 110.91 29.044C111.606 28.668 112.386 28.48 113.25 28.48C113.954 28.48 114.594 28.596 115.17 28.828C115.746 29.06 116.23 29.4 116.622 29.848L115.638 30.808C114.998 30.168 114.226 29.848 113.322 29.848C112.73 29.848 112.202 29.972 111.738 30.22C111.282 30.468 110.922 30.816 110.658 31.264C110.402 31.712 110.274 32.224 110.274 32.8C110.274 33.36 110.402 33.864 110.658 34.312C110.922 34.76 111.282 35.112 111.738 35.368C112.202 35.624 112.726 35.752 113.31 35.752C113.966 35.752 114.542 35.608 115.038 35.32V32.704ZM127.428 37L125.712 34.54C125.64 34.548 125.532 34.552 125.388 34.552H123.492V37H121.932V28.6H125.388C126.116 28.6 126.748 28.72 127.284 28.96C127.828 29.2 128.244 29.544 128.532 29.992C128.82 30.44 128.964 30.972 128.964 31.588C128.964 32.22 128.808 32.764 128.496 33.22C128.192 33.676 127.752 34.016 127.176 34.24L129.108 37H127.428ZM127.392 31.588C127.392 31.052 127.216 30.64 126.864 30.352C126.512 30.064 125.996 29.92 125.316 29.92H123.492V33.268H125.316C125.996 33.268 126.512 33.124 126.864 32.836C127.216 32.54 127.392 32.124 127.392 31.588ZM139.517 35.056H135.317L134.489 37H132.881L136.661 28.6H138.197L141.989 37H140.357L139.517 35.056ZM139.001 33.832L137.417 30.16L135.845 33.832H139.001ZM147.978 29.908V32.464H152.034V33.784H147.978V37H146.418V28.6H152.55V29.908H147.978Z" fill="black"/>
<line y1="22.5" x2="25" y2="22.5" stroke="black"/>
<line x1="202" y1="22.5" x2="227" y2="22.5" stroke="black"/>
</svg>
