<svg id="Layer_1" data-name="Layer 1" xmlns="http://www.w3.org/2000/svg" width='100%' height='100%' viewBox="0 0 3000 3000"><defs><style>.cls-1,.cls-2{fill:inherit;}.cls-2{font-size:90px;font-family:MyriadPro-Regular, Myriad Pro;letter-spacing:0.6em;}.cls-3{letter-spacing:0.58em;}.cls-4{letter-spacing:0.57em;}.cls-5{letter-spacing:0.6em;}</style></defs><path class="cls-1" d="M1581.69,1416.16c3.34-4.14,6.68-8.3,10-12.44,15.6-19.31,34.69-34.72,54.88-48.87,5.52-3.86,11.23-7.43,16.92-11a36.27,36.27,0,0,1,17.13-5.51c4.15-.29,6.44,2.07,5.89,6.17-.58,4.33-1.47,8.63-2.47,12.89-4.24,18.05-10.09,35.62-16.31,53.06-7.47,20.93-15,41.83-20.82,63.31-2.27,8.43-10.38,12.49-18.84,9.69-1.72-.58-3-1.88-2.8-3.73a50.09,50.09,0,0,1,1.47-7.89c4.83-17.9,11.11-35.32,17.32-52.77,6.11-17.12,12.25-34.24,16.58-51.93.47-1.91,1.3-3.79.53-5.65-2.73-.69-4.19,1-5.74,2.15-19.3,14.31-36.89,30.36-51.13,49.88-11,15.1-19.64,31.34-24.8,49.37-3,10.48-4.66,11.71-15.61,11.68-4.71,0-9.43-.28-14.11-.76-3.18-.33-4.89-2.5-4.47-5.61a91.9,91.9,0,0,1,2.46-12.87c3.86-13.6,7.83-27.17,12-40.66,4.11-13.18,8.82-26.17,12-39.62.62-2.61,1.22-5.24,1.66-7.89.35-2.09-.78-3.14-3-2.92-4.35.46-8.71.83-13,1.47a49.05,49.05,0,0,1-14.06.33c-4.11-.55-5,.26-6.2,4.78-6.32,23.86-16.1,46.41-26.18,68.83-2.48,5.53-5.09,11-8.1,16.27a73.12,73.12,0,0,1-8.59,12.43c-7.55,8.47-17,13.09-28.64,12.12-7.88-.65-13.08-4.89-15.84-12.15a35.11,35.11,0,0,1-2-12.91c0-5.72.2-11.45.07-17.17-.1-4.42-2-6.16-6.32-5.87-6.71.44-13.41,1.1-20.1,1.7-11.73,1-23.43,2.45-35.18,3.06-15.15.78-30.08,3.38-45.14,4.76-6.11.56-11.82,2.55-17.72,3.84a5.71,5.71,0,0,0-4.17,4c-.77,2.23-1.53,4.46-2.25,6.7q-11.6,36.06-23.18,72.12c-.72,2.24-1.57,4.45-2.2,6.71-1.48,5.31-5.14,7.63-10.41,7.88-.67,0-1.34.07-2,.08-8,.18-9.92-1.93-7.56-9.54,6.16-19.94,12.6-39.8,18.91-59.69,2.45-7.7,4.86-15.41,7.29-23.12.5-1.61,1-3.2,1.49-4.83s1-3.43-.65-4.63c-1.17-.88-2.59-.22-3.8.38q-2.7,1.35-5.35,2.84a343.6,343.6,0,0,1-55.38,24.4,158.34,158.34,0,0,1-16.59,4.3c-4.66,1.06-9.31.55-14-.42-12.94-2.68-15.62-11.88-15.33-20.47.15-4.33,1.61-8.6,2.05-12.94.62-6.12,4.95-11.65,2.87-18.18-5.91,2.14-9.31,7.43-13.9,11.21-11.45,9.39-22.29,19.53-34.41,28.11-10.79,7.64-22.11,14.16-35.27,16.86a29.06,29.06,0,0,1-13,.15c-8.16-2.06-11.65-7.64-9.88-15.91,1.35-6.33,4.39-12,7.52-17.58,1.3-2.34,2.73-4.64,3.8-7.09.62-1.42-.32-2.59-1.81-3a12.09,12.09,0,0,0-3-.25c-14.14.08-28.26.3-42.36,1.73-4.36.44-6.75,2.52-7.86,6.5-.9,3.25-1.81,6.49-2.68,9.74-17.17,64.41-32.81,129.21-47.84,194.14-2.24,9.66-4.43,13.36-17.95,12.28-3.31-.26-4.69-2-4.26-5.49a76.87,76.87,0,0,1,1.54-7.92q22.62-97.92,48.19-195.1c3.85-14.55,3.68-14.33-10.67-13.46-28.92,1.76-57.9,1-86.8,2.23-18.17.78-36.33,1.08-54.5,1.51-1.68,0-3.36.09-5.05.17a6.42,6.42,0,0,0-6.21,4.31q-1.27,3.3-2.43,6.64c-26.75,77-53.28,154-78.66,231.41-.74,2.24-1.58,4.45-2.21,6.71-1.8,6.47-6.28,9.24-12.71,9.4a36.09,36.09,0,0,1-4-.07c-3.91-.36-5.52-2.34-4.72-6a70.63,70.63,0,0,1,2.25-7.75q28.33-84.76,56.76-169.52c7.2-21.37,14.76-42.63,22.27-63.9,3.38-9.59,2.49-11.07-7-10a74.43,74.43,0,0,1-9.09.29c-32.67-.34-65.25,2.55-97.91,2.63-17.7,2.59-35.67.75-53.38,3.25-1.66.23-3.36.19-5.05.28-16.8.85-33.62,1.43-50.4,2.63-21.13,1.51-42.22,3.57-63.34,5.31-11.39,1-22.82,1.63-34.21,2.62-9.72.84-19.41,2-29.11,3-9.37,1-18.75,1.82-28.11,2.81q-26.1,2.75-52.17,5.57c-15.06,1.61-30.12,3.13-45.16,4.83-12.7,1.43-25.38,3-38.07,4.59q-22,2.7-44.05,5.44c-3,.38-6,1-9,1.27-4.69.35-9.4.52-14.1.6a2.84,2.84,0,0,1-3.08-2.06c-.41-1.58.52-2.58,1.7-3.28a38.67,38.67,0,0,1,19.23-5.42c11.79-.21,23.35-2.52,35.16-2.83,12.38-.32,24.71-2.79,37.06-4.26q23.55-2.79,47.1-5.49c15.7-1.81,31.39-3.69,47.11-5.34,16.06-1.69,32.14-3.14,48.21-4.71,10.71-1,21.43-2,32.12-3.21,8.69-1,17.44-1,26.15-2.11,12-1.48,24.14-1.85,36.23-2.7l48.31-3.4c1.68-.12,3.35-.28,5-.34q16.65-.67,33.27-1.72c22.83-1.45,45.75-1.42,68.58-2.89,20.52-1.32,41-1.16,61.55-2.18,11.76-.58,23.52-1.35,35.3-1.46,5,0,8.15-1.92,9.76-6.87,2.59-8,5.62-15.87,8.38-23.82q29.67-85.38,59.29-170.78c14.07-40.73,27.93-81.54,41.88-122.31.43-1.28.83-2.57,1.31-3.82,2.8-7.31,9.92-10.93,17.79-9.08,2.61.62,4.13,2.55,3.66,5.15a46.1,46.1,0,0,1-1.82,6.8q-25.17,74.12-50.42,148.2-12.24,35.85-24.72,71.61-15.75,45.32-31.58,90.6c-.55,1.59-1,3.21-1.61,4.78-3,8.08-2.48,9.39,6.32,8.65,12.06-1,24.21-1,36.33-1.17,32.65-.33,65.25-2.73,97.92-2.41,4.69,0,9.38-1,14.08-1.17,5.07-.19,8.13-2.25,9.25-7.41,1.07-4.92,2.6-9.75,4-14.62q32.6-117.77,65.12-235.56c8.45-30.84,16.3-61.85,24.14-92.85,4.94-19.58,9.35-39.29,14-59,.54-2.29,1-4.6,1.62-6.88,2.47-9.5,8.39-13.17,18-11.19,2.73.56,4.3,2.3,3.91,5-.59,4-1.38,8-2.27,11.9-13.33,59.12-27.76,118-44,176.36-13.78,49.63-28,99.14-42,148.71-7,25-13.93,49.94-20.88,74.91a46.06,46.06,0,0,0-1.12,4.92c-.61,3.69.35,4.94,4.24,5,5,.09,10.15.37,15.14-.2a286.31,286.31,0,0,1,31.25-1.55c4.86,0,8.11-1.93,10.9-5.88a254.1,254.1,0,0,1,65.42-63.85c14.64-10,30.23-17.62,47.89-20.43,7.38-1.18,14.73-1.47,22,.7,3.33,1,6.52,2.28,6.91,6.35.31,3.18-2.33,5.87-7,7.52a19.24,19.24,0,0,1-8.9,1.36c-2.42-.32-4.84-1-5.42-3.76-.79-3.72-3.27-3.85-6.12-3.29-8.64,1.7-16.88,4.28-24.39,9.2-36.46,23.88-66,54.15-86.26,93a132.78,132.78,0,0,0-5.61,13,14.51,14.51,0,0,0-.71,4.93c0,1.9,2.24,3.61,4.21,3.53,2.89-.12,5-1.76,7.16-3.4,30.68-23.16,60-47.92,86.21-76.11a24.52,24.52,0,0,1,16.66-8.34,20.16,20.16,0,0,1,3,0c3.24.24,4.95,2.43,4,5.46a65.34,65.34,0,0,1-2.79,7.57c-6.31,14.56-10.92,29.7-15.12,45a66.12,66.12,0,0,0-2.34,11.87c-.76,9,4.19,14.07,13.2,13.72a41.87,41.87,0,0,0,8.89-1.62c13.79-3.68,26.28-10.31,38.64-17.21,4.41-2.46,8.73-5.1,13-7.73,5.76-3.53,11.52-7,18.46-7.75a5.89,5.89,0,0,0,5.15-4.24c1-2.86,2-5.71,2.94-8.6,10.79-34,21.47-68.06,32.36-102,3.6-11.22,7.61-22.31,11.58-33.4a137.84,137.84,0,0,0,7-32.49c.42-4.11-.51-8-.78-12.05-.4-5.88.92-7.89,6.52-9.7a25.41,25.41,0,0,1,5.91-1.19c5.19-.37,7.49,1.29,8.83,6.23,1.7,6.29,1.44,12.69.61,19a124.41,124.41,0,0,1-6.17,25.49c-13.15,37.14-24.12,75-36.41,112.41-3,9.28-5.9,18.62-8.82,27.93-.51,1.61-1,3.23-1.33,4.87-.22,1-.09,2.22,1,2.48a3.68,3.68,0,0,0,2.74-.6,37.41,37.41,0,0,0,4.48-4.06q25.62-26.51,51.2-53.06c2.11-2.18,4.14-4.45,6.44-6.41,5-4.22,10.94-4.83,17.12-4,2.78.36,3.58,3,1.72,5.26-1.26,1.57-2.67,3-4.07,4.48q-27,28-54,56c-1.64,1.7-3.32,3.36-4.79,5.2a4.07,4.07,0,0,0-.79,2.73c.1,1.13,1.29,1.56,2.29,1.56,6.39,0,12.8.19,19.16-.25,14.43-1,28.83-2.35,43.24-3.5,9.39-.76,18.79-1.4,28.18-2.14,6.49-.52,7.87-1.62,9.41-8.33a251.64,251.64,0,0,1,14-43.18c.53-1.23,1-2.48,1.62-3.7,3.49-7.4,9.92-10.49,18.18-8.75,2.63.56,4.08,2.65,3.36,5.21a58.5,58.5,0,0,1-2.38,6.65c-8.36,20-13.28,40.93-16,62.41-.29,2.34-.77,4.65-1.1,7a54.58,54.58,0,0,0-.26,15.1c.5,3.59.46,8.72,4.06,9.71,4.48,1.24,5.33-4.21,6.89-7.2a601.21,601.21,0,0,0,29.82-66.28c2-5.35,3.53-10.88,5.08-16.39a58.57,58.57,0,0,0,1.45-7.93c.8-5.74-.13-10.56-6-13.62-3.14-1.64-2.66-4.28.61-5.9,7-3.49,13.85-4.48,21,.27a51.37,51.37,0,0,0,16.72,6.85c10.79,2.59,20.66,1.27,29.7-5.31,4.37-3.18,9.32-3.62,14.46-3,3.09.39,4.88,2.47,4.28,5.65-1.31,6.93-2.64,13.9-4.57,20.68-3.86,13.58-8.12,27.05-12.22,40.56Z"/><path class="cls-1" d="M2054.88,1183.84c-3.93,9-7.74,17.6-11.4,26.22q-40.18,94.92-87.69,186.38c-10.59,20.3-21.5,40.44-33.77,59.79-9.93,15.66-20.43,30.9-33.67,44a57.39,57.39,0,0,1-18.2,12.49c-20.15,8.48-34.9,2.14-42.41-18.53a93,93,0,0,1-4-14.58c-2.25-11.91-3.21-24-4.38-36.05-2-20.85-1.83-41.71-1.29-62.56.53-20.51,2.06-41,3.16-61.49.09-1.68.2-3.36.25-5,.56-20.87,2.17-41.66,3.82-62.46,1.17-14.74,1.87-29.52,2.88-45.84-2.58,2.7-2.91,4.85-3.55,6.81-19.52,59.85-38.65,119.83-58.66,179.51q-37.73,112.52-78.29,224c-3.34,9.17-6.57,18.38-10,27.51-3.08,8.15-10,11.6-18.46,9.52a4.22,4.22,0,0,1-3.25-5.38,58.91,58.91,0,0,1,2-6.75q29-81.35,57.91-162.7c7.63-21.58,14.88-43.3,22.1-65,16.68-50.15,33.53-100.25,49.78-150.54,15.21-47.08,29.74-94.39,44.58-141.59.3-1,.72-1.91.92-2.89,1.63-8.23,4.61-12,17.12-11.19,3.52.21,4.82,1.62,4.93,5a298.93,298.93,0,0,1-1.86,43.24c-1.07,9.36-1.09,18.79-2.09,28.19-1.42,13.37-1.8,26.85-2.75,40.28-1,14.09-2.14,28.18-3.22,42.27-.08,1-.23,2-.28,3-.85,16.81-1.48,33.63-2.59,50.41-2,29.58-2.4,59.19-2.4,88.82,0,21.92,1,43.74,4.75,65.38,1.08,6.31,2.19,12.61,4.52,18.61a30.09,30.09,0,0,0,5.45,9.62c2.84,3.14,5.38,3.56,8.89,1.29a56.53,56.53,0,0,0,11.89-10.86c9.94-11.52,18-24.38,26.06-37.19,21.63-34.21,39.64-70.38,57.32-106.72,27.55-56.62,53.06-114.16,77.55-172.17,22.92-54.28,44.77-109,66.64-163.7a31.38,31.38,0,0,0,1.48-3.75c2.82-10.94,12-12.92,21-14a10.91,10.91,0,0,1,3.92.81c1.84.53,2.91,2.65,1.76,3.89-5.82,6.28-6.91,14.36-9,22.16q-7.93,29.75-16.3,59.39-35.85,127.88-71.78,255.71-28.66,102.09-57.34,204.17c-.73,2.59-1.64,5.13-2.31,7.74-1.38,5.33-5,7.73-10.25,8-10.86.63-12.37-1.24-9.58-11.14q10.13-36,20.2-71.95,29.58-105.5,59.17-211,10.23-36.45,20.56-72.89C2055.31,1188.4,2056.5,1186.58,2054.88,1183.84Z"/><path class="cls-1" d="M2318.31,1358.79h-14.8q-17.69,0-35.36,0c-3.41,0-6.68.36-9.38,2.9-3,2.81-4,5.94-2.95,10a72.73,72.73,0,0,1,2.7,21,152.38,152.38,0,0,1-10.22,49.21,150.12,150.12,0,0,1-20,36.1c-9.92,13.43-22.69,22.82-39.05,27-6.34,1.64-12.6,2.22-18.86-.08-3.51-1.29-6.36-1.21-8.63,2.46-2.57,4.14-7,5-11.47,5.19-9.69.43-9.61-3.56-6.86-9.44,2.86-6.09,5.6-12.25,8.7-18.23a24.25,24.25,0,0,0,3-11.55c-.09-30.9,5.53-60.9,14.69-90.31.5-1.61,1-3.22,1.43-4.84a7.72,7.72,0,0,0-1.17-6.62c-2.81-4.44-2.13-7.37,2.05-10a22.56,22.56,0,0,1,7.37-3.1c10.25-2.08,16.43,4.06,14.48,14.39a71.52,71.52,0,0,1-3.3,10.58c-5,14-7.9,28.53-10.2,43.17-.29,1.86-1,4,.83,5.62,2.12.1,2.72-1.71,3.59-3a520.38,520.38,0,0,1,42.33-55.3,19.65,19.65,0,0,0,2.83-4.13,3.93,3.93,0,0,0,.21-2.89c-1.71-4.24-4.22-7.74-9.35-8-3.37-.15-6.74-.15-10.1-.2-3-.06-6.08-.08-9-1.25-1.19-.49-2.59-.9-2.61-2.61a3.59,3.59,0,0,1,2.15-3.16c8.78-5.08,18.25-7.64,28.09-4.64,8.25,2.52,16.49,2.84,24.92,2.82q42.42-.09,84.85,0,4.55,0,9.09.23a5.43,5.43,0,0,1,4.28,2.25c3.9,5.18,3,8.56-3.09,10.73a22.24,22.24,0,0,1-10.89,1.54c-2.65-.39-4.56.93-6,3-6,8.41-8.65,17.35-4.64,27.54s11,18.46,17.49,27c1.56,2,4,2.41,6.38,2.41,5.05,0,10.14.35,15.15-.12,20.5-1.93,41.05-1.26,61.57-1.34,79.81-.31,159.61-.11,239.42-.66,23.2-.16,46.41-1.7,69.64-1.78,3,0,6.06,0,9.08.11,1.27.07,2.81.18,3.2,1.82.5,2.13-1.15,3-2.62,3.71a32.57,32.57,0,0,1-12.68,3.05c-3,.2-6.06.22-9.09.27-8.75.12-17.51.08-26.26.36-109.4,3.49-218.84,1.1-328.25,2.14-4.7,0-9.44-.26-14.05,1.08-2.53.73-3.49,2-2.82,4.37.82,2.91,2,5.74,2.71,8.67,3.28,13-.19,23.58-11.41,30.78-15,9.63-31.31,12-48.26,5.68-9.23-3.42-15.82-10.16-20.24-18.86a59.42,59.42,0,0,1-6.62-26.22c-.11-7.23,2-9.9,9.24-10.64,9.37-1,18.81-1.18,28.19-2,4.16-.35,8.67,1.39,12.44-1.77-.76-4.17-4.07-6.82-6.17-10.19-2.85-4.58-5.7-9.09-7.29-14.34-3.75-12.33-1.16-23.22,6.92-33.06C2315.1,1363.93,2317.5,1362.92,2318.31,1358.79Zm-82.18,39.57c0-.45-.07-2.81-.32-5.14a2.07,2.07,0,0,0-1.25-1.35,2.25,2.25,0,0,0-1.81.38,19.58,19.58,0,0,0-2.77,2.91,550.5,550.5,0,0,0-47,70.53,49,49,0,0,0-3.59,7.22c-2.26,6.33-2,12.62,1.58,18.45,2.33,3.85,6.46,4.89,10.55,3,3.74-1.77,6.51-4.67,9.17-7.77a149.46,149.46,0,0,0,28.57-50.71A123.81,123.81,0,0,0,2236.13,1398.36Zm75.1,35.51v.34c-5,0-10.07-.13-15.1.06-2.82.1-4.3,2-4,4.69.94,7.72,2.69,15.21,6.83,21.94a31.93,31.93,0,0,0,14,12.67c10.51,4.84,19.5.9,23-10.09a16.37,16.37,0,0,0,.53-1.94c1.79-9.17-1-17.25-6.1-24.7a7.13,7.13,0,0,0-6.11-3C2320,1433.84,2315.59,1433.87,2311.23,1433.87Z"/><path class="cls-1" d="M2006.38,1805.83a29.51,29.51,0,0,1-3.93-.56,3.63,3.63,0,0,1-3-3.58,52,52,0,0,1,1-9c9.45-43.72,18.84-87.45,28.49-131.13,19.51-88.35,40.75-176.3,63.15-264,4.49-17.6,9.13-35.16,13.71-52.74.51-2,1-3.9,1.64-5.82,2.62-8.22,8.11-11.71,16.77-10.69,3.57.42,5.47,2.66,4.9,6.19-.48,3-1.24,5.93-2,8.86-8.64,33.54-17.55,67-25.9,100.65-15.22,61.37-30.06,122.83-44,184.51q-18.15,80.2-35,160.69c-.55,2.63-1.25,5.23-1.8,7.87-1,4.91-4.23,7.47-9,8.25C2009.81,1805.66,2008.12,1805.69,2006.38,1805.83Z"/><path class="cls-1" d="M1198.15,1309c-3.46-.14-6.76-.33-9.83-2-5.59-3.07-9.24-9-8.28-14.86,3.8-23.24,24.89-32.93,40.83-29.16,12,2.85,17.36,12.63,11.69,23.59C1225.45,1300.29,1213.74,1307.87,1198.15,1309Zm15.13-27.76a9.2,9.2,0,0,0-.58-2.81,7.48,7.48,0,0,0-2.56-2.81c-1.3-.72-2.62.19-3.49,1.19-4.21,4.83-5.7,10.4-4.05,16.64a3.21,3.21,0,0,0,1.92,2,3.33,3.33,0,0,0,2.63-.89C1210.72,1290.87,1213.07,1286.58,1213.28,1281.23Z"/><path class="cls-1" d="M2153.34,1244.57c-5.58,0-7.81-1.31-8.94-6-1.74-7.18-3.15-14.45-4.42-21.73-.64-3.7.67-5.86,4.06-7.18a34.19,34.19,0,0,1,7.77-2c5.44-.72,8.38,1.16,9.63,6.47,1.63,6.86,3,13.8,4.16,20.76.76,4.52-1,7.2-5.25,8.42A55.88,55.88,0,0,1,2153.34,1244.57Z"/><text class="cls-2" transform="translate(1104.09 1740.6)"><tspan class="cls-3" x="0" y="0">F</tspan><tspan class="cls-3" x="97.83" y="0">O</tspan><tspan class="cls-4" x="211.59" y="0">T</tspan><tspan x="307.89" y="0">OG</tspan><tspan class="cls-5" x="536.04" y="0">R</tspan><tspan x="638.91" y="0">AF</tspan></text></svg>